<?xml version="1.0" standalone="no"?>
<!DOCTYPE svg PUBLIC "-//W3C//DTD SVG 20010904//EN"
 "http://www.w3.org/TR/2001/REC-SVG-20010904/DTD/svg10.dtd">
<svg version="1.0" xmlns="http://www.w3.org/2000/svg"
 width="700.000000pt" height="700.000000pt" viewBox="0 0 700.000000 700.000000"
 preserveAspectRatio="xMidYMid meet">
<metadata>
Created by potrace 1.11, written by Peter Selinger 2001-2013
</metadata>
<g transform="translate(0.000000,700.000000) scale(0.100000,-0.100000)"
fill="#000000" stroke="none">
<path d="M1765 5396 c-16 -8 -42 -26 -57 -42 -51 -54 -58 -88 -58 -272 0 -159
1 -171 25 -218 14 -28 40 -59 62 -74 l37 -25 753 -3 753 -2 2 -1778 3 -1777
24 -36 c14 -20 41 -47 60 -60 33 -23 43 -24 227 -27 177 -3 196 -2 232 17 55
28 88 71 101 131 8 36 11 574 11 1790 l0 1740 707 0 c700 0 707 0 751 21 26
13 54 38 70 62 l27 41 0 201 0 201 -27 41 c-16 24 -44 49 -70 62 l-44 21
-1780 0 c-1464 -1 -1784 -3 -1809 -14z"/>
<path d="M1800 4033 c-47 -24 -77 -73 -85 -136 -3 -29 -5 -646 -3 -1372 3
-1307 3 -1320 23 -1355 12 -19 36 -43 55 -55 32 -18 52 -20 255 -20 211 0 221
1 256 23 74 46 69 -65 69 1454 0 1278 -1 1365 -18 1397 -9 19 -30 44 -45 55
-26 20 -44 21 -250 24 -196 2 -226 0 -257 -15z"/>
</g>
</svg>
